<?xml version="1.0" encoding="UTF-8"?> <svg xmlns="http://www.w3.org/2000/svg" width="148" height="47" viewBox="0 0 148 47" fill="none"><path d="M127.594 16.1249H129.328V14.4189H127.594V14.4901C127.594 14.4901 127.594 14.7033 127.594 14.8691V16.1249Z" fill="url(#paint0_linear_276_7833)"></path><path d="M15.0798 7.64258H4.02823H0.320312V11.2914V14.964L15.1039 14.8929V14.1347C15.1039 13.6134 15.5372 13.1869 16.0669 13.1869H19.4378C19.9674 13.1869 20.4009 13.6134 20.4009 14.1347V17.4518C20.4009 17.9731 19.9674 18.3995 19.4378 18.3995H16.0669C15.5372 18.3995 15.1039 17.9731 15.1039 17.4518V16.5988L0.320312 16.6699V28.7064C2.39097 24.9628 5.95443 22.1432 10.3124 20.9822V20.0581C10.3124 19.5369 10.7458 19.1104 11.2756 19.1104H14.6464C15.1761 19.1104 15.6095 19.5369 15.6095 20.0581V23.3753C15.6095 23.8966 15.1761 24.323 14.6464 24.323H11.2756C10.7458 24.323 10.3124 23.8966 10.3124 23.3753V22.9014C4.9191 24.5363 1.04263 29.0855 0.320312 34.6299V35.1274H4.02823H14.7908C22.1585 35.1274 28.4668 29.6542 29.0206 22.4275C29.6225 14.3717 23.1457 7.64258 15.0798 7.64258Z" fill="url(#paint1_linear_276_7833)"></path><path d="M18.6668 14.8691H16.8359V16.6699H18.6668V14.8691Z" fill="url(#paint2_linear_276_7833)"></path><path d="M13.8777 20.8164H12.0469V22.6171H13.8777V20.8164Z" fill="url(#paint3_linear_276_7833)"></path><path d="M131.568 5.22527H130.122C129.906 5.22527 129.713 5.03571 129.713 4.82247V3.40084C129.713 3.1876 129.906 2.99805 130.122 2.99805H131.568C131.784 2.99805 131.976 3.1876 131.976 3.40084V4.82247C131.976 5.05941 131.784 5.22527 131.568 5.22527Z" fill="url(#paint4_linear_276_7833)"></path><path d="M146.326 4.13589H143.991C143.63 4.13589 143.316 3.85157 143.316 3.47247V1.17417C143.316 0.818758 143.605 0.510742 143.991 0.510742H146.326C146.687 0.510742 147 0.795066 147 1.17417V3.47247C147 3.82787 146.687 4.13589 146.326 4.13589ZM144.52 2.95121H145.796V1.69543H144.52V2.95121Z" fill="#F89F38"></path><path d="M143.966 11.4813H141.751C141.39 11.4813 141.125 11.197 141.125 10.8652V8.68541C141.125 8.32996 141.414 8.06934 141.751 8.06934H143.966C144.327 8.06934 144.592 8.35367 144.592 8.68541V10.8652C144.592 11.197 144.303 11.4813 143.966 11.4813ZM142.257 10.344H143.46V9.15924H142.257V10.344Z" fill="url(#paint5_linear_276_7833)"></path><path d="M135.394 12.4526H132.023C131.494 12.4526 131.061 12.0261 131.061 11.5049V8.18773C131.061 8.02186 131.133 7.85602 131.205 7.71387H113.291V14.8931H125.98V13.7084C125.98 13.2108 126.389 12.8081 126.895 12.8081H130.073C130.579 12.8081 130.988 13.2108 130.988 13.7084V16.8359C130.988 17.3336 130.579 17.7364 130.073 17.7364H126.895C126.389 17.7364 125.98 17.3336 125.98 16.8359V16.7412C125.474 17.3573 124.969 17.997 124.487 18.6367C123.404 20.1295 122.416 21.7406 121.526 23.5176C120.659 25.2947 119.912 27.1901 119.311 29.2279C118.708 31.2655 118.299 33.469 118.106 35.0329H126.847C126.919 33.4453 127.208 31.1708 127.714 28.9672C128.219 26.7637 128.893 24.7497 129.712 22.8779C130.554 21.0061 131.518 19.3238 132.626 17.8074C133.733 16.3147 134.937 15.0353 136.237 13.9927V11.9077C136.093 12.2394 135.755 12.4526 135.394 12.4526Z" fill="url(#paint6_linear_276_7833)"></path><path d="M134.624 8.94531H132.793V10.746H134.624V8.94531Z" fill="url(#paint7_linear_276_7833)"></path><path d="M40.6501 14.8926V7.76074H31.5488V14.9637L40.6501 14.8926Z" fill="url(#paint8_linear_276_7833)"></path><path d="M31.5488 16.6698V35.0325H40.6501V16.5986L31.5488 16.6698Z" fill="url(#paint9_linear_276_7833)"></path><path d="M58.7317 20.0349V25.9584H62.7286C62.6082 26.4323 62.3674 26.8588 62.0544 27.2379C61.7414 27.6169 61.3561 27.9487 60.9227 28.233C60.4893 28.5174 60.0078 28.7306 59.5263 28.8727C59.0206 29.0149 58.5391 29.1096 58.0816 29.1096C56.9259 29.1096 55.9869 28.8964 55.2405 28.4936C54.4941 28.0909 53.9162 27.5459 53.4588 26.8588C53.0253 26.1717 52.7124 25.3897 52.5438 24.4894C52.3753 23.589 52.279 22.665 52.279 21.6935C52.279 20.4851 52.3994 19.3952 52.616 18.4238C52.7605 17.7604 53.0013 17.168 53.2421 16.623L43.9 16.6704C43.4425 18.2342 43.1777 19.9165 43.1777 21.7409C43.1777 24.1103 43.5389 26.1717 44.2853 27.9487C45.0076 29.702 45.9948 31.171 47.2468 32.332C48.4988 33.4931 49.9194 34.3697 51.5326 34.9383C53.1458 35.507 54.8552 35.7913 56.6129 35.7913C57.6964 35.7913 58.6595 35.6966 59.5504 35.507C60.4171 35.3174 61.2117 35.0805 61.8859 34.7725C62.56 34.4645 63.1619 34.1091 63.6675 33.7063C64.1732 33.3035 64.6066 32.877 64.9918 32.4505L65.3289 35.1516H71.1797V20.0349H58.7317Z" fill="url(#paint10_linear_276_7833)"></path><path d="M82.7861 14.8926V7.76074H73.709V14.9637L82.7861 14.8926Z" fill="url(#paint11_linear_276_7833)"></path><path d="M73.709 16.6698V35.0325H82.7861V16.5986L73.709 16.6698Z" fill="url(#paint12_linear_276_7833)"></path><path d="M110.763 14.8925V7.76074H85.3379V14.9162L110.763 14.8925Z" fill="url(#paint13_linear_276_7833)"></path><path d="M93.5 16.6468V35.0331H102.601V16.623L93.5 16.6468Z" fill="url(#paint14_linear_276_7833)"></path><path d="M139.271 0.676758H135.9C135.371 0.676758 134.938 1.10325 134.938 1.62451V4.94165C134.938 5.46291 135.371 5.8894 135.9 5.8894H139.271C139.801 5.8894 140.234 5.46291 140.234 4.94165V1.62451C140.234 1.10325 139.801 0.676758 139.271 0.676758ZM138.5 4.18344H136.671V2.38271H138.5V4.18344Z" fill="url(#paint15_linear_276_7833)"></path><path d="M60.9475 14.9638L70.2895 14.9875C70.0246 14.1819 69.6635 13.4474 69.2541 12.7602C68.4596 11.5045 67.4965 10.4383 66.3408 9.58526C65.1851 8.73235 63.8849 8.09257 62.4162 7.6661C60.9475 7.23961 59.3824 7.02637 57.7211 7.02637C55.4819 7.02637 53.4594 7.38177 51.6776 8.11627C49.8719 8.8271 48.355 9.84597 47.1029 11.1254C46.0435 12.2153 45.2008 13.4948 44.5508 14.9638L54.4224 14.8927C54.6873 14.6558 54.9522 14.4425 55.2412 14.2766C55.8912 13.8976 56.6617 13.7081 57.5766 13.7081C58.7564 13.7081 59.7436 13.9924 60.5382 14.5847C60.6586 14.6795 60.803 14.8217 60.9475 14.9638Z" fill="url(#paint16_linear_276_7833)"></path><defs><linearGradient id="paint0_linear_276_7833" x1="128.552" y1="13.6369" x2="128.416" y2="16.257" gradientUnits="userSpaceOnUse"><stop offset="0.4261" stop-color="#FF0000"></stop><stop offset="0.6466" stop-color="#FF0803"></stop><stop offset="1" stop-color="#FE1006"></stop></linearGradient><linearGradient id="paint1_linear_276_7833" x1="128.169" y1="-16.8144" x2="17.8072" y2="19.6195" gradientUnits="userSpaceOnUse"><stop offset="0.4261" stop-color="#12C8D6"></stop><stop offset="0.4874" stop-color="#12C2D6"></stop><stop offset="0.8053" stop-color="#13AAD4"></stop><stop offset="1" stop-color="#13A1D3"></stop></linearGradient><linearGradient id="paint2_linear_276_7833" x1="26.0348" y1="13.1317" x2="18.1355" y2="15.7409" gradientUnits="userSpaceOnUse"><stop offset="0.4261" stop-color="#12C8D6"></stop><stop offset="0.4874" stop-color="#12C2D6"></stop><stop offset="0.8053" stop-color="#13AAD4"></stop><stop offset="1" stop-color="#13A1D3"></stop></linearGradient><linearGradient id="paint3_linear_276_7833" x1="21.249" y1="19.0618" x2="13.3495" y2="21.671" gradientUnits="userSpaceOnUse"><stop offset="0.4261" stop-color="#12C8D6"></stop><stop offset="0.4874" stop-color="#12C2D6"></stop><stop offset="0.8053" stop-color="#13AAD4"></stop><stop offset="1" stop-color="#13A1D3"></stop></linearGradient><linearGradient id="paint4_linear_276_7833" x1="130.912" y1="2.97739" x2="130.793" y2="5.27018" gradientUnits="userSpaceOnUse"><stop offset="0.4261" stop-color="#FF0000"></stop><stop offset="1" stop-color="#FF0000"></stop></linearGradient><linearGradient id="paint5_linear_276_7833" x1="141.11" y1="9.7572" x2="144.59" y2="9.7572" gradientUnits="userSpaceOnUse"><stop offset="0.4261" stop-color="#12C8D6"></stop><stop offset="1" stop-color="#12C8D6"></stop></linearGradient><linearGradient id="paint6_linear_276_7833" x1="125.57" y1="-4.20253" x2="123.442" y2="36.8844" gradientUnits="userSpaceOnUse"><stop offset="0.4261" stop-color="#FF0000"></stop><stop offset="0.555" stop-color="#FD3212"></stop><stop offset="0.7015" stop-color="#FB6423"></stop><stop offset="0.8299" stop-color="#F98930"></stop><stop offset="0.9337" stop-color="#F89F38"></stop><stop offset="1" stop-color="#F8A73B"></stop></linearGradient><linearGradient id="paint7_linear_276_7833" x1="133.792" y1="8.10406" x2="133.648" y2="10.8943" gradientUnits="userSpaceOnUse"><stop offset="0.4261" stop-color="#FF0000"></stop><stop offset="1" stop-color="#FF0000"></stop></linearGradient><linearGradient id="paint8_linear_276_7833" x1="96.4025" y1="-7.95534" x2="26.4768" y2="15.1293" gradientUnits="userSpaceOnUse"><stop offset="0.4261" stop-color="#12C8D6"></stop><stop offset="0.4874" stop-color="#12C2D6"></stop><stop offset="0.8053" stop-color="#13AAD4"></stop><stop offset="1" stop-color="#13A1D3"></stop></linearGradient><linearGradient id="paint9_linear_276_7833" x1="115.922" y1="0.331254" x2="23.384" y2="30.8812" gradientUnits="userSpaceOnUse"><stop offset="0.4261" stop-color="#12C8D6"></stop><stop offset="0.4874" stop-color="#12C2D6"></stop><stop offset="0.8053" stop-color="#13AAD4"></stop><stop offset="1" stop-color="#13A1D3"></stop></linearGradient><linearGradient id="paint10_linear_276_7833" x1="132.366" y1="1.96722" x2="24.8202" y2="37.4715" gradientUnits="userSpaceOnUse"><stop offset="0.4261" stop-color="#12C8D6"></stop><stop offset="0.4874" stop-color="#12C2D6"></stop><stop offset="0.8053" stop-color="#13AAD4"></stop><stop offset="1" stop-color="#13A1D3"></stop></linearGradient><linearGradient id="paint11_linear_276_7833" x1="113.78" y1="-0.036992" x2="43.8506" y2="23.0491" gradientUnits="userSpaceOnUse"><stop offset="0.4261" stop-color="#12C8D6"></stop><stop offset="0.4874" stop-color="#12C2D6"></stop><stop offset="0.8053" stop-color="#13AAD4"></stop><stop offset="1" stop-color="#13A1D3"></stop></linearGradient><linearGradient id="paint12_linear_276_7833" x1="125.286" y1="10.8116" x2="32.7526" y2="41.36" gradientUnits="userSpaceOnUse"><stop offset="0.4261" stop-color="#12C8D6"></stop><stop offset="0.4874" stop-color="#12C2D6"></stop><stop offset="0.8053" stop-color="#13AAD4"></stop><stop offset="1" stop-color="#13A1D3"></stop></linearGradient><linearGradient id="paint13_linear_276_7833" x1="133.512" y1="-0.0156863" x2="23.1509" y2="36.4182" gradientUnits="userSpaceOnUse"><stop offset="0.4261" stop-color="#12C8D6"></stop><stop offset="0.4874" stop-color="#12C2D6"></stop><stop offset="0.8053" stop-color="#13AAD4"></stop><stop offset="1" stop-color="#13A1D3"></stop></linearGradient><linearGradient id="paint14_linear_276_7833" x1="117.417" y1="19.6544" x2="57.1659" y2="39.5454" gradientUnits="userSpaceOnUse"><stop offset="0.4261" stop-color="#12C8D6"></stop><stop offset="0.4874" stop-color="#12C2D6"></stop><stop offset="0.8053" stop-color="#13AAD4"></stop><stop offset="1" stop-color="#13A1D3"></stop></linearGradient><linearGradient id="paint15_linear_276_7833" x1="137.724" y1="0.596531" x2="137.445" y2="5.98107" gradientUnits="userSpaceOnUse"><stop offset="0.4261" stop-color="#FF0000"></stop><stop offset="1" stop-color="#FF0000"></stop></linearGradient><linearGradient id="paint16_linear_276_7833" x1="121.282" y1="-7.76162" x2="27.5724" y2="23.1751" gradientUnits="userSpaceOnUse"><stop offset="0.4261" stop-color="#12C8D6"></stop><stop offset="0.4874" stop-color="#12C2D6"></stop><stop offset="0.8053" stop-color="#13AAD4"></stop><stop offset="1" stop-color="#13A1D3"></stop></linearGradient></defs></svg> 