<?xml version="1.0" encoding="UTF-8"?> <svg xmlns="http://www.w3.org/2000/svg" width="18" height="14" viewBox="0 0 18 14" fill="none"><path d="M1.6098 13.3602C1.2221 13.3661 0.84542 13.2311 0.549805 12.9802L5.64981 8.16016L6.0098 8.40016C6.3898 8.66682 6.69981 8.87682 6.93981 9.03016C7.25796 9.21184 7.59283 9.36253 7.9398 9.48016C8.28789 9.62806 8.66162 9.7062 9.0398 9.71016C9.42106 9.70472 9.79778 9.62667 10.1498 9.48016C10.4756 9.3577 10.7901 9.20714 11.0898 9.03016C11.3298 8.87682 11.6398 8.66682 12.0198 8.40016L12.3798 8.16016L17.4998 12.9802C17.2042 13.2311 16.8275 13.3661 16.4398 13.3602H1.6098Z" fill="#7C7D80"></path><path d="M16.99 5.13006C17.3568 4.90027 17.6928 4.62472 17.99 4.31006V11.6301L13.5 7.39006C14.4 6.85006 15.56 6.04006 16.99 5.13006Z" fill="#7C7D80"></path><path d="M1 5.13006C2.37 6.01006 3.5 6.76006 4.5 7.39006L0 11.6301V4.31006C0.301949 4.61957 0.637338 4.89459 1 5.13006Z" fill="#7C7D80"></path><path d="M1.61 5.21028e-05H16.39C16.6127 -0.0153813 16.8359 0.0208073 17.0423 0.105799C17.2487 0.19079 17.4327 0.32229 17.58 0.490052C17.8673 0.837917 18.0168 1.27921 18 1.73005C17.9815 2.20371 17.8056 2.65767 17.5 3.02005C17.1711 3.45028 16.7722 3.82213 16.32 4.12005L14.21 5.47005L12.6 6.53005L11.6 7.20005L11.45 7.30005L11.17 7.49005L10.63 7.85005L10.11 8.16005C9.92664 8.26484 9.73208 8.3487 9.53 8.41005C9.36915 8.46632 9.20038 8.4967 9.03 8.50005C8.85962 8.4967 8.69085 8.46632 8.53 8.41005C8.32792 8.3487 8.13336 8.26484 7.95 8.16005L7.39 7.85005L6.84 7.49005L6.57 7.30005L6.42 7.20005L5.42 6.53005L1.72 4.12005C1.24875 3.80351 0.835972 3.40765 0.5 2.95005C0.183322 2.53987 0.00791353 2.0382 0 1.52005C0.000903307 1.31469 0.0460294 1.11193 0.132308 0.925565C0.218588 0.739202 0.343995 0.57361 0.5 0.440052C0.800482 0.157406 1.19747 4.06322e-05 1.61 5.21028e-05Z" fill="#7C7D80"></path></svg> 