<?xml version="1.0" encoding="UTF-8"?> <svg xmlns="http://www.w3.org/2000/svg" width="14" height="19" viewBox="0 0 14 19" fill="none"><path d="M14.0001 6.31976V6.96976C13.9954 7.01965 13.9954 7.06988 14.0001 7.11976C13.872 8.47432 13.5029 9.79508 12.9101 11.0198C11.5327 13.8423 9.72438 16.4333 7.5501 18.6998C7.40371 18.8179 7.24633 18.9217 7.0801 19.0098H6.9701C6.76449 18.8726 6.5705 18.7187 6.3901 18.5498C4.88616 16.9438 3.54619 15.1918 2.3901 13.3198C1.48422 11.936 0.786762 10.4265 0.320102 8.83976C-0.0918581 7.54163 -0.116185 6.15152 0.250102 4.83976C0.749904 3.28804 1.77563 1.95942 3.15031 1.08313C4.525 0.206836 6.16243 -0.162173 7.7801 0.0397646C9.17716 0.174333 10.5 0.731741 11.572 1.63761C12.644 2.54349 13.4143 3.75474 13.7801 5.10976C13.8801 5.50976 13.9301 5.91976 14.0001 6.31976ZM7.0001 2.37976C5.83553 2.35828 4.70975 2.79839 3.86852 3.60401C3.0273 4.40964 2.53896 5.51535 2.5101 6.67976C2.54412 7.8398 3.03302 8.93992 3.87122 9.74257C4.70942 10.5452 5.82968 10.986 6.9901 10.9698C7.56927 10.983 8.14538 10.8821 8.68552 10.6726C9.22565 10.4632 9.71923 10.1494 10.1381 9.74916C10.5569 9.34891 10.8927 8.87006 11.1264 8.33997C11.3601 7.80988 11.4871 7.23894 11.5001 6.65976C11.4859 6.08148 11.3575 5.5117 11.1223 4.98319C10.8872 4.45468 10.5499 3.97786 10.1298 3.58013C9.70981 3.18239 9.21531 2.8716 8.67477 2.6656C8.13423 2.4596 7.55831 2.36246 6.9801 2.37976H7.0001Z" fill="#7C7D80"></path></svg> 