<?xml version="1.0" encoding="UTF-8"?> <svg xmlns="http://www.w3.org/2000/svg" width="17" height="17" viewBox="0 0 17 17" fill="none"><path d="M12.7894 16.8842C12.0804 16.8682 11.3783 16.74 10.7094 16.5042C9.88266 16.2157 9.09626 15.8225 8.36944 15.3342C7.34554 14.6915 6.36661 13.9799 5.43944 13.2042C4.10576 12.0733 2.94953 10.7485 2.00944 9.27417C1.57789 8.62889 1.18067 7.9613 0.819437 7.27417C0.435876 6.53202 0.179006 5.73099 0.0594367 4.90417C-0.141457 3.62991 0.171434 2.32799 0.929437 1.28417C1.18857 0.926628 1.5064 0.615562 1.86944 0.364175C2.22384 0.102252 2.65974 -0.0253266 3.09944 0.00417446C3.30944 0.00417446 3.53944 0.00417451 3.74944 0.0741745C3.93753 0.0935186 4.11627 0.165791 4.26495 0.282609C4.41363 0.399427 4.52614 0.556003 4.58944 0.734174L5.77944 4.12417C5.83596 4.32226 5.85295 4.52953 5.82944 4.73417C5.80795 4.8866 5.74184 5.02925 5.63944 5.14417L5.09944 5.73417L4.41944 6.45417C4.35322 6.51911 4.30679 6.60151 4.28555 6.69179C4.26431 6.78207 4.26912 6.87652 4.29944 6.96417C4.33772 7.07109 4.38454 7.17476 4.43944 7.27417C5.32874 9.00163 6.6391 10.4771 8.24944 11.5642C8.72723 11.9138 9.23217 12.2248 9.75944 12.4942C9.87086 12.5458 9.9885 12.5828 10.1094 12.6042C10.1545 12.6114 10.2006 12.608 10.244 12.5941C10.2874 12.5802 10.327 12.5562 10.3594 12.5242L11.2494 11.6942C11.3494 11.5942 11.4594 11.5042 11.5494 11.4042C11.6945 11.2495 11.8806 11.1391 12.0859 11.086C12.2913 11.0329 12.5075 11.0392 12.7094 11.1042C13.1394 11.2342 13.5694 11.3642 13.9994 11.5142L16.1094 12.2642C16.3031 12.3198 16.4755 12.4326 16.604 12.5878C16.7325 12.7431 16.8111 12.9335 16.8294 13.1342C16.8945 13.5147 16.8945 13.9036 16.8294 14.2842C16.76 14.6302 16.5935 14.9493 16.3494 15.2042C15.6604 16.0486 14.6854 16.6108 13.6094 16.7842L12.7894 16.8842Z" fill="#7C7D80"></path></svg> 